<svg width="49" height="48" viewBox="0 0 49 48" fill="none" xmlns="http://www.w3.org/2000/svg">
<g id="Component 3">
<path id="Subtract" fill-rule="evenodd" clip-rule="evenodd" d="M24.1584 0H46.1584C47.263 0 48.1584 0.895431 48.1584 2V24H40.1535C40.894 23.242 41.3013 22.2549 41.3013 21.2148C41.2828 18.9585 39.376 17.1429 37.0065 17.1429C35.9328 17.1429 34.8962 17.5307 34.1002 18.2358C32.3601 19.7694 32.2675 22.343 33.878 24H24.1584V9.71916V0ZM24.1584 9.71916L24.1584 15.9947C22.5014 17.6052 19.9278 17.5126 18.3942 15.7725C17.6891 14.9765 17.3013 13.9399 17.3013 12.8662C17.3013 10.4967 19.1169 8.58994 21.3732 8.57143C22.4133 8.57143 23.4004 8.97869 24.1584 9.71916Z" fill="#064E72"/>
<path id="Union" fill-rule="evenodd" clip-rule="evenodd" d="M33.8778 24C32.2673 22.343 32.3598 19.7693 34.1 18.2357C34.896 17.5306 35.9326 17.1428 37.0063 17.1428C39.3758 17.1428 41.2825 18.9585 41.3011 21.2148C41.3011 22.2548 40.8938 23.242 40.1533 24L48.1582 24V46C48.1582 47.1045 47.2628 48 46.1582 48H24.1582V38.2808C24.9162 39.0213 25.9033 39.4285 26.9434 39.4285C29.1997 39.41 31.0153 37.5033 31.0153 35.1338C31.0153 34.0601 30.6275 33.0234 29.9224 32.2274C28.3888 30.4873 25.8152 30.3948 24.1582 32.0053V24H33.8778Z" fill="#A8D0C8"/>
<path id="Union_2" fill-rule="evenodd" clip-rule="evenodd" d="M24.1582 48L2.1582 48C1.05363 48 0.158203 47.1046 0.158203 46L0.158205 24L8.16308 24C7.42261 24.758 7.01535 25.7451 7.01535 26.7852C7.03386 29.0415 8.94058 30.8571 11.3101 30.8571C12.3838 30.8571 13.4204 30.4693 14.2164 29.7642C15.9566 28.2306 16.0491 25.657 14.4386 24H24.1582V32.0053C25.8152 30.3948 28.3888 30.4874 29.9224 32.2275C30.6275 33.0235 31.0153 34.0601 31.0153 35.1338C31.0153 37.5033 29.1997 39.4101 26.9434 39.4286C25.9033 39.4286 24.9162 39.0213 24.1582 38.2808L24.1582 48Z" fill="#064E72"/>
<path id="Union_3" fill-rule="evenodd" clip-rule="evenodd" d="M0.158203 2C0.158203 0.89543 1.05363 0 2.1582 0H24.1582V9.71916C23.4002 8.97869 22.4131 8.57143 21.373 8.57143C19.1167 8.58994 17.3011 10.4967 17.3011 12.8662C17.3011 13.9399 17.6889 14.9765 18.394 15.7725C19.9276 17.5126 22.5012 17.6052 24.1582 15.9947V24H14.4386C16.0491 25.657 15.9566 28.2306 14.2164 29.7642C13.4204 30.4693 12.3838 30.8571 11.3101 30.8571C8.94058 30.8571 7.03386 29.0415 7.01535 26.7852C7.01535 25.7451 7.42261 24.758 8.16308 24H0.158203V2Z" fill="#A8D0C8"/>
</g>
</svg>
