<svg width="49" height="48" viewBox="0 0 49 48" fill="none" xmlns="http://www.w3.org/2000/svg">
<g id="Bot builder">
<g id="Vector">
<path d="M14.1347 42.6667H20.7483C20.1365 43.2562 19.8 44.024 19.8 44.8329C19.8153 46.5878 21.3906 48 23.3483 48C24.2354 48 25.0919 47.6984 25.7496 47.15C27.1872 45.9572 27.2637 43.9554 25.9331 42.6667H32.3535C33.2426 42.6667 33.9634 41.9503 33.9634 41.0667L33.9698 36.4407C34.596 37.0166 35.4116 37.3333 36.2709 37.3333C38.135 37.3189 39.6351 35.8359 39.6351 33.993C39.6351 33.1579 39.3147 32.3516 38.7322 31.7325C37.4651 30.3791 35.3388 30.3071 33.9698 31.5597L33.9634 24L25.9331 24.0003C27.2637 25.289 27.1872 27.2907 25.7495 28.4836C25.0919 29.032 24.2354 29.3336 23.3483 29.3336C21.3906 29.3336 19.8153 27.9214 19.8 26.1665C19.8 25.3576 20.1365 24.5898 20.7483 24.0003L14.1347 24V42.6667Z" fill="#064E72"/>
<path fill-rule="evenodd" clip-rule="evenodd" d="M20.7793 5.33333C19.4487 4.04456 19.5252 2.04284 20.9629 0.850043C21.6205 0.301628 22.477 0 23.3641 0C25.3218 0 26.8971 1.41217 26.9124 3.16709C26.9124 3.97601 26.5759 4.74379 25.9642 5.33333H33.9941V12.8924C33.3679 12.3167 32.5524 12 31.6933 12C29.8291 12.0144 28.329 13.4974 28.329 15.3404C28.329 16.1754 28.6494 16.9817 29.232 17.6009C30.499 18.9542 32.6251 19.0263 33.9941 17.7739V24H25.9638C27.2944 25.2888 27.2179 27.2905 25.7802 28.4833C25.1226 29.0317 24.2661 29.3333 23.379 29.3333C21.4213 29.3333 19.846 27.9212 19.8307 26.1662C19.8307 25.3573 20.1672 24.5895 20.779 24H14.1654L14.1654 17.7736C12.7964 19.0263 10.67 18.9543 9.40296 17.6009C8.82041 16.9817 8.5 16.1754 8.5 15.3404C8.5 13.4974 10.0001 12.0144 11.8643 12C12.7235 12 13.5391 12.3168 14.1654 12.8927L14.1654 6.93333C14.1654 6.04968 14.8861 5.33333 15.7753 5.33333L20.7793 5.33333Z" fill="#A8D0C8"/>
</g>
</g>
</svg>
