<svg width="48" height="48" viewBox="0 0 48 48" fill="none" xmlns="http://www.w3.org/2000/svg">
<g id="google drive">
<path id="Vector" d="M32.7919 31.6125H15.2886L7.79346 44.7048C8.69514 45.1632 9.71908 45.4572 10.3813 45.4572C17.2667 45.4572 31.3187 45.3553 38.2942 45.3553C39.0115 45.3553 39.6829 45.1108 40.2851 44.7277L32.7919 31.6125Z" fill="#4185F3"/>
<path id="Vector_2" d="M7.79354 44.7052L15.2887 31.613H0.100718C0.0930771 32.5229 0.416562 33.3553 0.923439 34.3048C2.33556 36.9467 4.72476 41.1698 6.12823 43.3756C6.47413 43.9192 7.84753 44.7328 7.79354 44.7052Z" fill="#1767D1"/>
<path id="Vector_3" d="M32.792 31.6126L40.2877 44.7257C41.2591 44.1083 42.0508 43.1302 42.5648 42.2295C43.7253 40.1984 45.6876 36.8164 47.0411 34.5265C47.6702 33.4618 47.9148 32.5056 47.8995 31.6116L32.792 31.6126Z" fill="#E94235"/>
<path id="Vector_4" d="M15.2903 31.6136L24.033 16.4144L16.2195 3.38745C15.3743 3.94323 14.6515 4.69769 14.3234 5.27232C10.9128 11.254 4.04219 23.5133 0.587277 29.5724C0.233257 30.1923 0.063758 30.9006 0.0987391 31.6136H15.2903Z" fill="#30A753"/>
<path id="Vector_5" d="M32.7912 31.6135L24.0327 16.4143L31.6318 3.4021C32.4769 3.95839 33.4046 4.69757 33.7327 5.27271C37.1433 11.2539 44.0139 23.5132 47.4703 29.5722C47.8269 30.1953 47.9344 30.9003 47.8998 31.6135H32.7912Z" fill="#F9BC00"/>
<path id="Vector_6" d="M16.2183 3.38933L24.0328 16.4143L31.6319 3.40206C30.8474 2.94358 29.7363 2.67206 28.6604 2.63793C25.6671 2.53808 20.8143 2.49783 18.2025 2.61144C17.5586 2.63945 16.2264 3.38372 16.2183 3.38933Z" fill="#0F8038"/>
</g>
</svg>
