<svg width="17" height="14" viewBox="0 0 17 14" fill="none" xmlns="http://www.w3.org/2000/svg">
<g id="open bot" clip-path="url(#clip0_23819_30186)">
<path id="Vector" d="M0.5 1.75C0.5 0.784766 1.29722 0 2.27778 0H7.31944C7.79167 0 8.24444 0.183203 8.57778 0.511328L10.6472 2.54844C10.9806 2.87656 11.1667 3.32227 11.1667 3.78711V5.43047C10.8556 5.51797 10.5583 5.63281 10.2778 5.775V3.78711C10.2778 3.55469 10.1833 3.3332 10.0167 3.16914L7.94722 1.13203C7.78056 0.967969 7.55556 0.875 7.31944 0.875H2.27778C1.78611 0.875 1.38889 1.26602 1.38889 1.75V12.25C1.38889 12.734 1.78611 13.125 2.27778 13.125H8.73056C9.00278 13.4477 9.31389 13.7348 9.66111 13.9809C9.57222 13.9945 9.48333 14 9.38889 14H2.27778C1.29722 14 0.5 13.2152 0.5 12.25V1.75ZM8.5 10.0625C8.5 7.88867 10.2917 6.125 12.5 6.125C14.7083 6.125 16.5 7.88867 16.5 10.0625C16.5 12.2363 14.7083 14 12.5 14C10.2917 14 8.5 12.2363 8.5 10.0625ZM9.38889 10.0625C9.38889 11.7551 10.7806 13.125 12.5 13.125C14.2194 13.125 15.6111 11.7551 15.6111 10.0625C15.6111 8.36992 14.2194 7 12.5 7C10.7806 7 9.38889 8.36992 9.38889 10.0625ZM10.2778 10.0625C10.2778 9.82187 10.4778 9.625 10.7222 9.625H13.2056L12.4083 8.84023C12.2361 8.6707 12.2361 8.3918 12.4083 8.22227C12.5806 8.05273 12.8639 8.05273 13.0361 8.22227L14.5917 9.75352C14.7639 9.92305 14.7639 10.202 14.5917 10.3715L13.0361 11.9027C12.8639 12.0723 12.5806 12.0723 12.4083 11.9027C12.2361 11.7332 12.2361 11.4543 12.4083 11.2848L13.2056 10.5H10.7222C10.4778 10.5 10.2778 10.3031 10.2778 10.0625Z" fill="black"/>
</g>
<defs>
<clipPath id="clip0_23819_30186">
<rect width="16" height="14" fill="white" transform="translate(0.5)"/>
</clipPath>
</defs>
</svg>
