<svg width="17" height="16" viewBox="0 0 17 16" fill="none" xmlns="http://www.w3.org/2000/svg">
<g id="icon" clip-path="url(#clip0_23819_30004)">
<path id="icon_2" d="M13.6667 8V15H14.6667C15.219 15 15.6667 14.5523 15.6667 14V8H13.6667ZM9.66675 0L13.6667 4V7H16.6667V14C16.6667 15.1046 15.7713 16 14.6667 16H1.66675C1.11446 16 0.666748 15.5523 0.666748 15V1C0.666748 0.447715 1.11446 0 1.66675 0H9.66675ZM9.25253 1H1.66675V15H12.6667V4.41421L9.25253 1ZM7.16675 11C7.44289 11 7.66675 11.2239 7.66675 11.5C7.66675 11.7761 7.44289 12 7.16675 12H4.16675C3.89061 12 3.66675 11.7761 3.66675 11.5C3.66675 11.2239 3.89061 11 4.16675 11H7.16675ZM10.1667 9C10.4429 9 10.6667 9.22386 10.6667 9.5C10.6667 9.77614 10.4429 10 10.1667 10H4.16675C3.89061 10 3.66675 9.77614 3.66675 9.5C3.66675 9.22386 3.89061 9 4.16675 9H10.1667ZM10.1667 7C10.4429 7 10.6667 7.22386 10.6667 7.5C10.6667 7.77614 10.4429 8 10.1667 8H4.16675C3.89061 8 3.66675 7.77614 3.66675 7.5C3.66675 7.22386 3.89061 7 4.16675 7H10.1667ZM10.1667 5C10.4429 5 10.6667 5.22386 10.6667 5.5C10.6667 5.77614 10.4429 6 10.1667 6H4.16675C3.89061 6 3.66675 5.77614 3.66675 5.5C3.66675 5.22386 3.89061 5 4.16675 5H10.1667Z" fill="#333333"/>
</g>
<defs>
<clipPath id="clip0_23819_30004">
<rect width="16" height="16" fill="white" transform="translate(0.666748)"/>
</clipPath>
</defs>
</svg>
