<svg width="17" height="16" viewBox="0 0 17 16" fill="none" xmlns="http://www.w3.org/2000/svg">
<g id="action / save">
<path id="icon" fill-rule="evenodd" clip-rule="evenodd" d="M4 3C3.72386 3 3.5 3.22386 3.5 3.5V12.5C3.5 12.7761 3.72386 13 4 13H4.5V9.5C4.5 8.67157 5.17157 8 6 8H11C11.8284 8 12.5 8.67157 12.5 9.5V13H13C13.2761 13 13.5 12.7761 13.5 12.5V5.91421C13.5 5.78161 13.4473 5.65443 13.3536 5.56066L11.5 3.70711V5.5C11.5 6.32843 10.8284 7 10 7H6C5.17157 7 4.5 6.32843 4.5 5.5V3H4ZM4 2C3.17157 2 2.5 2.67157 2.5 3.5V12.5C2.5 13.3284 3.17157 14 4 14H13C13.8284 14 14.5 13.3284 14.5 12.5V5.91421C14.5 5.51639 14.342 5.13486 14.0607 4.85355L11.6464 2.43934C11.3651 2.15804 10.9836 2 10.5858 2H4ZM5.5 3V5.5C5.5 5.77614 5.72386 6 6 6H10C10.2761 6 10.5 5.77614 10.5 5.5V3H5.5ZM11.5 13V9.5C11.5 9.22386 11.2761 9 11 9H6C5.72386 9 5.5 9.22386 5.5 9.5V13H11.5Z" fill="#333333"/>
</g>
</svg>
