<svg width="17" height="16" viewBox="0 0 17 16" fill="none" xmlns="http://www.w3.org/2000/svg">
<g id="action / delete">
<path id="icon" d="M11 1C11.8284 1 12.5 1.67157 12.5 2.5V3H15C15.2761 3 15.5 3.22386 15.5 3.5C15.5 3.77614 15.2761 4 15 4H14.5V13.5C14.5 14.3284 13.8284 15 13 15H4C3.17157 15 2.5 14.3284 2.5 13.5V4H2C1.72386 4 1.5 3.77614 1.5 3.5C1.5 3.22386 1.72386 3 2 3H4.5V2.5C4.5 1.67157 5.17157 1 6 1H11ZM13.5 4H3.5V13.5C3.5 13.7761 3.72386 14 4 14H13C13.2761 14 13.5 13.7761 13.5 13.5V4ZM8.5 6C8.77614 6 9 6.22386 9 6.5V11.5C9 11.7761 8.77614 12 8.5 12C8.22386 12 8 11.7761 8 11.5V6.5C8 6.22386 8.22386 6 8.5 6ZM11 6C11.2761 6 11.5 6.22386 11.5 6.5V11.5C11.5 11.7761 11.2761 12 11 12C10.7239 12 10.5 11.7761 10.5 11.5V6.5C10.5 6.22386 10.7239 6 11 6ZM6 6C6.27614 6 6.5 6.22386 6.5 6.5V11.5C6.5 11.7761 6.27614 12 6 12C5.72386 12 5.5 11.7761 5.5 11.5V6.5C5.5 6.22386 5.72386 6 6 6ZM11 2H6C5.72386 2 5.5 2.22386 5.5 2.5V3H11.5V2.5C11.5 2.22386 11.2761 2 11 2Z" fill="#333333"/>
</g>
</svg>
